<svg xmlns="http://www.w3.org/2000/svg" viewBox="0 0 69.75 35.12"><defs><style>.cls-1{fill:#d5d4d4;}.cls-2{fill:none;stroke:#d5d4d4;stroke-miterlimit:10;stroke-width:2.85px;}.cls-3{fill:#fa4c06;}</style></defs><title>Asset 3</title><g id="Layer_2" data-name="Layer 2"><g id="Layer_1-2" data-name="Layer 1"><polygon class="cls-1" points="20.14 35.12 21.25 32.27 34.84 32.27 34.84 35.12 20.14 35.12"/><path class="cls-2" d="M1.42,35.12A33.69,33.69,0,0,1,35.12,1.42"/><line class="cls-2" x1="1.5" y1="33.69" x2="8.07" y2="33.69"/><line class="cls-2" x1="34.84" y1="1.42" x2="34.84" y2="7.99"/><line class="cls-2" x1="5.83" y1="20.99" x2="9.41" y2="22.89"/><line class="cls-2" x1="16.34" y1="7.99" x2="19.58" y2="12.15"/><circle class="cls-3" cx="14.77" cy="32.71" r="2.16"/><path class="cls-2" d="M68.33,35.12A33.69,33.69,0,0,0,34.63,1.42"/><line class="cls-2" x1="68.25" y1="33.69" x2="61.68" y2="33.69"/><line class="cls-2" x1="34.92" y1="1.42" x2="34.92" y2="7.99"/><line class="cls-2" x1="63.92" y1="20.99" x2="60.34" y2="22.89"/><line class="cls-2" x1="53.41" y1="7.99" x2="50.18" y2="12.15"/></g></g></svg>